<svg version="1.1" id="Layer_1" xmlns="http://www.w3.org/2000/svg" xmlns:xlink="http://www.w3.org/1999/xlink" x="0px" y="0px"
	 width="100%" viewBox="0 0 1024 1024" enable-background="new 0 0 1024 1024" xml:space="preserve">
<path fill="#000000" opacity="1.000000" stroke="none" 
	d="
M348.620056,840.438599 
	C340.666992,837.771118 333.109589,835.195312 325.525543,832.700623 
	C318.928467,830.530640 313.738098,826.260132 309.712585,820.918213 
	C297.196411,804.309143 284.909424,787.524048 272.741516,770.657166 
	C265.291687,760.330322 263.684479,748.599487 264.181000,736.021179 
	C264.868347,718.607422 263.440399,701.365845 253.395630,686.138184 
	C249.247284,679.849365 246.112411,672.985657 243.239456,666.102539 
	C240.675369,659.959473 236.468399,655.294617 231.627762,651.407654 
	C222.272705,643.895752 217.803314,633.728516 214.259293,622.868042 
	C212.704071,618.102112 213.283005,613.354370 214.620209,608.604248 
	C219.010834,593.007324 220.941925,577.846436 210.664383,563.241394 
	C202.590057,551.767212 198.821503,537.925110 191.918762,525.742188 
	C190.361008,522.992859 188.831039,520.196289 186.962708,517.661377 
	C183.778473,513.341187 182.101135,508.549164 182.008881,503.260345 
	C181.928116,498.629791 181.054016,494.050598 178.468018,490.415466 
	C175.138702,485.735413 174.422775,480.553314 174.260086,475.308807 
	C174.054459,468.681091 172.460648,462.482086 170.309311,456.323395 
	C167.067444,447.042877 164.086044,437.665009 160.598389,428.478699 
	C157.929306,421.448547 157.936462,414.098267 157.187836,406.841919 
	C156.739212,402.493530 156.019623,398.261078 154.578506,394.157104 
	C148.019104,375.477509 144.067581,356.189758 143.505875,336.476349 
	C143.138550,323.584534 144.037033,310.662689 149.118896,298.213440 
	C154.156235,285.873230 156.731964,272.749878 158.110626,259.396484 
	C159.542725,245.525513 165.246689,233.595520 175.508713,223.853149 
	C186.133652,213.766296 195.756012,202.721710 205.610703,191.885376 
	C212.614838,184.183548 220.773270,177.395096 229.682632,171.779800 
	C233.075485,169.641403 237.006210,168.593262 240.993683,167.985107 
	C246.757339,167.106094 252.447800,165.761841 258.179474,164.829803 
	C268.940735,163.079865 276.943207,156.560104 285.110413,150.349548 
	C299.114075,139.700806 313.232239,129.608856 331.448700,127.320457 
	C340.439789,126.190971 349.020599,128.322220 357.755035,129.298965 
	C374.538055,131.175720 390.364441,127.576569 404.918274,119.665176 
	C412.265564,115.671249 417.087921,107.945816 424.263672,103.225563 
	C429.120361,100.030815 433.528198,96.156433 438.158875,92.614906 
	C448.763641,84.504417 457.440765,84.254555 469.168976,90.610733 
	C476.648560,94.664314 483.522217,99.768616 491.057770,103.538513 
	C505.963440,110.995537 521.521667,116.822227 538.485962,110.574020 
	C545.194031,108.103333 551.842651,105.523552 558.701904,103.479858 
	C561.605286,102.614777 564.100098,100.994904 565.423096,97.943573 
	C568.474243,90.906265 574.393372,88.626221 580.931641,92.609184 
	C587.715515,96.741745 592.858521,102.728912 596.061096,110.038902 
	C597.669922,113.711075 599.028076,117.480850 601.437500,120.706436 
	C605.575684,126.246208 606.830566,132.453857 605.854980,139.156250 
	C604.924622,145.547775 606.860596,150.829254 611.075378,155.669754 
	C619.016724,164.789993 628.148682,171.484375 640.784912,171.946304 
	C643.173889,172.033661 645.473511,172.802353 647.282715,174.298340 
	C658.983154,183.973297 673.180542,189.688644 685.372620,198.833588 
	C693.804993,205.158508 704.900696,208.811569 716.272400,208.881760 
	C719.772034,208.903366 723.290771,209.120804 726.768433,208.843903 
	C741.139771,207.699615 752.987305,212.571060 762.081238,223.700943 
	C770.007141,233.401230 779.961853,240.307892 790.513184,246.907013 
	C810.937317,259.680878 826.094238,277.712372 838.656494,298.119385 
	C846.210327,310.390381 847.131409,324.160370 849.080078,337.840546 
	C852.504395,361.878967 848.261353,385.657898 847.349487,409.551086 
	C846.950073,420.014282 847.871399,430.498047 847.046448,440.970825 
	C845.497803,460.629578 842.566345,480.084259 835.732605,498.614319 
	C832.820740,506.510010 828.033508,513.645874 827.346802,522.413086 
	C826.771912,529.752319 826.326599,537.028015 827.860107,544.288330 
	C828.486694,547.254456 829.581970,549.932739 831.619385,552.324829 
	C834.752197,556.003052 835.628845,560.341858 833.993164,564.970032 
	C831.476562,572.091003 828.182861,578.944458 822.968506,584.382263 
	C815.562134,592.106079 811.535583,601.441101 808.256348,611.304871 
	C803.685669,625.053223 796.314697,636.464355 785.375854,646.618469 
	C772.385986,658.676453 758.107117,669.631653 749.289490,686.187988 
	C743.164124,697.689270 737.944519,709.021912 735.512817,721.744873 
	C734.345581,727.851562 732.165222,733.608337 728.104858,738.487122 
	C727.680847,738.996582 727.240173,739.540649 726.996826,740.144958 
	C720.646179,755.921265 707.566650,765.489014 694.709778,775.289246 
	C692.873352,776.689087 691.138977,778.333923 689.714539,780.146057 
	C674.200317,799.883118 658.353516,819.338623 641.526611,837.982544 
	C639.026306,840.752808 635.840088,842.573303 632.952759,844.814514 
	C622.542664,852.895264 610.867432,857.987610 598.044189,861.093201 
	C585.594971,864.108215 573.484009,868.325745 560.413025,868.381226 
	C549.236450,868.428589 538.143799,867.333801 527.045532,866.546631 
	C509.559235,865.306458 492.252655,865.114685 474.778381,867.548523 
	C453.566193,870.502930 432.382965,869.638489 411.276886,864.823792 
	C399.712189,862.185608 389.183838,858.406616 379.326294,851.630066 
	C372.413635,846.877808 364.144714,844.116821 355.785645,842.253418 
	C353.512695,841.746643 351.263977,841.131104 348.620056,840.438599 
M726.881714,468.362366 
	C730.299255,457.964172 731.572754,447.148102 731.443420,436.354156 
	C731.184204,414.716827 726.096191,394.149902 715.505249,375.109375 
	C687.617859,324.972748 626.662354,299.200897 570.533630,320.975525 
	C562.015198,324.280151 562.168640,324.319550 562.126953,333.572479 
	C562.104248,338.608643 563.251038,343.492004 563.473450,348.472076 
	C563.602722,351.367096 562.437744,353.808563 559.539734,354.779907 
	C556.366089,355.843719 555.081177,353.326263 553.820862,351.171295 
	C551.703674,347.551086 550.516907,343.551178 549.245117,339.580750 
	C547.675842,334.681152 546.405029,334.235382 542.218140,337.355621 
	C539.018555,339.740051 535.875000,342.256927 533.018921,345.035858 
	C514.100037,363.443512 502.588684,385.697998 499.444916,411.947418 
	C498.676300,418.364838 496.749542,422.459320 489.925537,423.556610 
	C487.198303,423.995148 484.679901,425.636993 482.016937,426.593140 
	C478.001038,428.035034 476.911346,430.484528 477.983154,434.737823 
	C489.655945,481.057373 515.347412,517.079651 556.350769,541.906494 
	C561.890015,545.260437 563.640259,544.158569 563.646729,537.511963 
	C563.675720,507.680908 563.663757,477.849792 563.655396,448.018707 
	C563.654907,446.363007 563.645508,444.736389 563.030151,443.107697 
	C560.663513,436.843353 562.665466,433.032440 569.126099,433.012268 
	C574.799377,432.994537 576.699158,430.104248 577.658203,425.360352 
	C580.476318,411.421753 588.022400,400.348328 599.707153,392.653046 
	C618.365540,380.364960 638.227844,379.674713 657.297302,391.030365 
	C676.477356,402.451782 684.783081,420.264771 682.359741,442.642578 
	C678.956238,474.072296 648.469177,495.745300 617.751648,488.301910 
	C597.432251,483.378204 584.376343,470.428253 578.404541,450.376678 
	C577.604248,447.689484 577.335388,444.556213 573.161621,445.254761 
	C569.348328,445.892975 570.327881,448.855530 570.322632,451.150360 
	C570.255737,480.648010 570.536316,510.150269 570.055786,539.640442 
	C569.934265,547.097839 572.063354,550.760986 579.127014,553.553040 
	C600.494812,561.999023 622.669250,565.589905 645.419861,566.660950 
	C648.298706,566.796448 649.551819,565.664124 649.927979,562.714233 
	C650.520142,558.070557 651.049561,553.421082 650.742859,548.771362 
	C650.447449,544.292603 652.365112,542.327393 656.579712,541.092957 
	C673.058655,536.266113 687.205322,527.387024 699.382446,515.343933 
	C700.588867,514.150818 702.495361,513.226746 702.007263,510.361786 
	C694.181824,511.350403 686.317993,512.897949 678.642761,509.489532 
	C670.037964,505.668335 663.677612,497.854584 664.728088,491.432373 
	C667.948425,492.976959 671.197815,494.132751 674.817200,493.798279 
	C680.368896,493.285217 683.603210,489.603119 686.803406,485.642761 
	C694.184753,476.508087 702.541138,474.346527 713.399719,478.754791 
	C714.936401,479.378632 716.093933,479.391998 717.618774,478.784302 
	C722.196777,476.959808 725.749451,474.313751 726.881714,468.362366 
M462.298004,361.197998 
	C454.375366,352.875793 446.736145,344.259979 438.476227,336.287201 
	C414.895508,313.526215 389.861847,292.714661 359.448944,279.384094 
	C331.405640,267.092194 304.491302,267.691193 279.180603,286.307220 
	C267.238556,295.090607 259.887177,306.683533 257.954803,321.631470 
	C255.817383,338.165741 258.310516,354.221466 263.226166,369.846985 
	C273.352112,402.034393 295.235870,424.202362 324.629456,439.479187 
	C346.466248,450.828461 369.957642,456.674377 394.269684,459.627197 
	C398.145386,460.097870 400.834076,458.664612 403.534210,456.043976 
	C422.961670,437.188477 444.880249,421.738342 469.865997,411.379547 
	C478.694153,407.719482 482.704346,402.654755 483.667480,393.778870 
	C484.029388,390.443390 483.848053,387.814056 481.598450,385.043671 
	C475.301727,377.289185 469.450348,369.174072 462.298004,361.197998 
M395.354919,509.654938 
	C403.384033,522.315918 411.286804,535.051819 420.550690,546.889038 
	C446.792358,580.420105 478.244812,607.797974 516.131042,627.425598 
	C547.382874,643.616089 580.617249,653.272278 615.731140,656.366699 
	C618.192871,656.583618 619.387024,655.577637 620.545593,653.753235 
	C625.289490,646.282593 629.365723,638.459656 632.887390,630.354248 
	C634.707214,626.165833 633.732483,624.890259 628.981934,624.245300 
	C620.577087,623.104309 612.163330,621.995178 603.799622,620.595520 
	C594.763550,619.083313 585.965576,616.517883 577.162415,614.005737 
	C570.443909,612.088562 570.282959,612.256226 570.245056,619.401550 
	C570.235352,621.234558 570.256165,623.069092 570.187439,624.900085 
	C570.101440,627.188416 569.602417,629.590820 566.881775,629.677734 
	C563.946045,629.771484 563.734131,627.257568 563.700012,625.002808 
	C563.659607,622.336853 563.387573,619.632019 563.730591,617.011414 
	C564.452515,611.495667 562.129028,608.812622 556.990356,606.667664 
	C526.504944,593.942749 499.510681,575.850830 476.063446,552.551208 
	C453.598175,530.227417 436.174927,504.375031 422.604370,475.836700 
	C418.810730,467.858795 418.665710,468.041718 412.249695,474.385651 
	C401.580902,484.934570 393.246155,497.255310 385.492249,509.902252 
	C367.131989,539.848694 357.299103,572.552917 355.245819,607.625427 
	C355.013611,611.592041 356.320404,614.708923 358.748352,617.662354 
	C373.574371,635.697144 388.870880,653.258606 406.477081,668.723267 
	C442.021179,699.944031 482.265686,722.193237 528.355652,733.550110 
	C531.748779,734.386230 534.756653,734.416382 537.931519,732.705933 
	C548.068115,727.245239 557.967590,721.427429 567.066284,714.338318 
	C568.454529,713.256775 570.482361,712.302002 570.016296,710.098450 
	C569.514221,707.724854 567.071899,708.396606 565.462402,707.791565 
	C564.693298,707.502441 563.837524,707.446106 563.023193,707.274109 
	C531.496582,700.613770 501.633240,689.599976 473.817291,673.216614 
	C431.881165,648.516541 398.215057,615.054016 370.175659,575.590393 
	C367.145355,571.325439 365.839905,568.092407 368.037415,562.101746 
	C374.724213,543.873047 383.655975,526.808899 392.196808,509.501068 
	C393.409912,507.042755 393.994598,508.736969 395.354919,509.654938 
M489.467743,363.920288 
	C491.732666,366.337097 493.462891,365.526581 495.012848,363.066650 
	C497.495758,359.125977 500.011475,355.205414 502.559204,351.306305 
	C503.749664,349.484375 503.747162,347.610260 503.269684,345.570801 
	C498.296265,324.327637 492.344055,303.375122 483.439087,283.414215 
	C477.607513,270.342438 471.447418,257.352844 460.824188,247.240158 
	C451.104950,237.988007 434.938049,239.579285 427.160065,250.525589 
	C420.061249,260.516052 416.903473,272.053802 414.231354,283.776093 
	C413.393158,287.453156 414.723328,289.995636 417.652069,292.379059 
	C443.809082,313.665558 467.623596,337.325043 489.467743,363.920288 
M669.715759,442.019012 
	C670.769836,431.371674 668.977966,421.376038 662.257080,412.790070 
	C651.484558,399.028107 637.310364,393.855896 620.262939,397.458344 
	C603.725830,400.952942 592.948853,413.277649 589.700684,431.583038 
	C587.195312,445.702484 594.701782,461.694427 607.473083,470.238586 
	C629.414795,484.917877 663.643555,474.173401 669.715759,442.019012 
z"/>
<path fill="#000000" opacity="1.000000" stroke="none" 
	d="
M705.144775,433.468170 
	C703.226440,428.079224 704.003540,423.201904 706.017822,418.501617 
	C707.784485,414.379150 711.123230,411.649139 715.505127,411.280792 
	C719.834473,410.916809 723.048218,413.562775 725.169556,417.258148 
	C728.744324,423.485382 728.984802,429.935974 725.796326,436.358826 
	C723.651611,440.679169 720.227295,443.598755 715.137085,443.191223 
	C709.527344,442.742096 706.989746,438.633331 705.144775,433.468170 
z"/>
<path fill="#000000" opacity="1.000000" stroke="none" 
	d="
M621.822144,441.863159 
	C623.695557,439.462769 625.609009,437.553833 628.028320,436.411499 
	C633.703735,433.731812 637.543640,428.969971 641.698853,423.681244 
	C646.018921,429.431427 646.461304,434.994171 644.883850,440.748260 
	C642.998840,447.624023 638.706299,452.373413 631.613281,454.280487 
	C627.535583,455.376740 623.659729,455.049774 620.267883,452.424896 
	C617.502136,450.284546 614.704895,447.978149 619.647095,444.988312 
	C620.545105,444.445038 620.967041,443.114929 621.822144,441.863159 
z"/>
</svg>